<svg version="1.0" xmlns="http://www.w3.org/2000/svg"  width="3072.000000pt" height="3072.000000pt" viewBox="0 0 3072.000000 3072.000000"  preserveAspectRatio="xMidYMid meet">  <g transform="translate(0.000000,3072.000000) scale(0.100000,-0.100000)" fill="#4472c3" stroke="none"> <path d="M3615 30501 c-4 -7 -88 -11 -257 -11 -249 0 -252 0 -293 -25 -33 -19 -62 -25 -131 -30 -69 -5 -96 -11 -119 -28 -24 -17 -49 -23 -123 -27 -82 -4 -95 -8 -110 -28 -13 -16 -32 -24 -72 -29 -37 -4 -60 -13 -74 -28 -15 -16 -37 -24 -74 -27 -36 -4 -60 -12 -76 -27 -14 -13 -43 -25 -68 -28 -23 -4 -57 -17 -74 -30 -17 -12 -38 -23 -48 -23 -9 0 -26 -11 -37 -24 -12 -13 -36 -27 -55 -31 -19 -3 -38 -15 -44 -25 -6 -11 -28 -24 -51 -30 -22 -6 -43 -18 -46 -25 -3 -8 -23 -20 -45 -27 -22 -6 -47 -22 -55 -35 -8 -13 -21 -23 -28 -23 -7 0 -23 -11 -36 -25 -13 -13 -29 -25 -35 -25 -6 0 -25 -12 -42 -27 -39 -35 -73 -62 -136 -110 -27 -21 -89 -78 -137 -128 -49 -49 -96 -98 -106 -108 -10 -10 -22 -23 -28 -28 -5 -6 -22 -24 -37 -39 -16 -15 -28 -33 -28 -38 0 -6 -16 -19 -35 -31 -19 -11 -35 -26 -35 -34 0 -7 -16 -27 -35 -44 -19 -17 -35 -38 -35 -45 0 -8 -11 -24 -25 -36 -14 -12 -25 -28 -25 -35 0 -7 -16 -28 -35 -47 -19 -19 -35 -42 -35 -51 0 -9 -11 -24 -25 -33 -14 -9 -25 -23 -25 -31 0 -8 -13 -29 -29 -45 -16 -17 -32 -46 -35 -65 -4 -19 -18 -43 -31 -54 -14 -10 -25 -29 -25 -42 0 -30 -9 -43 -37 -58 -16 -8 -25 -24 -29 -51 -4 -26 -15 -45 -30 -55 -14 -9 -26 -29 -30 -52 -3 -21 -17 -49 -29 -63 -14 -16 -26 -44 -30 -76 -5 -37 -14 -58 -31 -73 -13 -11 -24 -31 -25 -43 -1 -58 -10 -85 -33 -103 -19 -15 -26 -33 -32 -75 -4 -38 -13 -62 -29 -77 -19 -18 -25 -38 -31 -104 -5 -64 -12 -87 -30 -109 -19 -22 -25 -45 -31 -105 -5 -64 -10 -81 -30 -98 -20 -18 -23 -30 -24 -86 -1 -131 -15 -226 -37 -257 -19 -26 -22 -47 -27 -184 -13 -369 -16 -425 -31 -447 -20 -32 -20 -265 0 -282 17 -14 23 -99 31 -426 6 -221 7 -231 30 -265 21 -32 24 -50 31 -188 6 -141 9 -156 29 -178 19 -20 25 -42 30 -109 6 -68 12 -89 30 -109 18 -19 24 -42 30 -103 5 -61 12 -83 30 -103 17 -19 24 -41 28 -94 4 -60 9 -72 30 -88 17 -12 28 -32 32 -61 4 -23 18 -56 31 -74 13 -17 24 -41 24 -52 0 -31 18 -71 40 -90 11 -9 24 -37 29 -63 4 -26 20 -61 35 -78 14 -17 26 -43 26 -57 0 -16 7 -27 20 -30 11 -3 24 -20 31 -42 7 -20 25 -51 40 -69 16 -18 29 -41 29 -51 0 -10 11 -26 25 -35 14 -9 25 -26 25 -37 0 -11 14 -34 30 -51 17 -16 33 -41 36 -54 4 -14 33 -53 65 -87 33 -34 62 -70 65 -79 3 -9 14 -20 24 -23 10 -3 22 -16 26 -28 4 -12 18 -33 32 -47 13 -14 50 -52 81 -85 31 -33 87 -87 124 -120 37 -33 105 -95 150 -137 74 -68 177 -148 192 -148 3 0 14 -9 25 -20 11 -11 34 -23 50 -27 17 -3 30 -12 30 -19 0 -7 17 -22 38 -33 20 -10 46 -28 56 -40 11 -12 27 -21 37 -21 10 0 28 -11 41 -24 13 -13 35 -26 50 -30 15 -3 44 -17 64 -31 20 -14 46 -25 56 -25 11 0 33 -11 50 -25 16 -14 41 -25 55 -25 14 0 38 -11 55 -25 16 -14 47 -28 69 -31 23 -4 46 -15 54 -27 11 -15 30 -21 84 -26 56 -5 73 -11 88 -30 15 -18 32 -24 83 -28 48 -4 72 -12 93 -29 21 -17 41 -24 73 -24 24 0 72 -11 106 -25 50 -20 78 -25 153 -25 78 0 96 -3 118 -20 40 -31 119 -40 370 -40 143 0 236 -4 248 -11 13 -7 24 -7 32 -1 7 6 122 11 279 12 263 1 314 6 349 36 10 9 57 16 135 20 95 5 129 11 170 30 36 17 69 24 112 24 49 0 66 4 89 24 19 16 47 26 88 31 44 5 65 13 82 31 17 18 32 24 67 24 41 0 76 18 76 39 0 5 23 11 52 14 29 4 60 15 72 25 12 11 33 22 48 26 14 3 40 17 56 31 17 14 39 25 50 25 10 0 36 14 57 30 21 17 48 30 60 30 13 0 30 11 39 25 9 14 24 25 34 25 24 0 42 19 42 43 0 18 5 19 51 13 67 -9 94 8 112 72 10 34 20 48 34 50 12 2 29 12 39 23 9 10 22 19 29 19 6 0 17 11 23 25 6 14 18 25 27 25 8 0 22 11 30 24 9 13 27 27 40 30 15 4 27 16 31 31 3 14 13 25 21 25 7 0 22 13 31 29 9 17 25 32 34 35 10 2 21 12 25 23 4 10 35 46 70 80 35 34 63 68 63 77 0 8 9 17 20 21 11 4 23 20 28 38 4 18 18 36 30 42 12 5 26 22 32 38 5 16 20 37 33 48 14 10 27 32 30 49 4 18 13 30 22 30 10 0 24 17 33 39 9 22 25 42 34 44 9 3 21 20 25 38 5 20 18 38 31 44 12 5 27 26 34 45 6 19 19 41 30 48 10 7 23 34 30 59 7 30 17 47 29 50 18 5 39 57 39 96 0 10 8 17 19 17 20 0 26 10 36 72 5 23 16 43 31 52 13 9 26 30 30 50 3 21 16 41 31 51 31 21 28 59 -5 63 -18 3 -26 -3 -35 -27 -6 -17 -19 -34 -29 -37 -10 -3 -22 -22 -28 -44 -6 -22 -19 -44 -30 -50 -11 -6 -24 -28 -30 -49 -6 -22 -21 -46 -34 -54 -14 -10 -26 -30 -30 -51 -4 -22 -14 -37 -26 -41 -10 -3 -24 -21 -30 -40 -6 -19 -18 -35 -27 -35 -8 0 -22 -18 -31 -40 -9 -22 -23 -40 -30 -40 -7 0 -20 -16 -28 -36 -8 -20 -24 -38 -34 -41 -10 -3 -24 -18 -31 -34 -6 -17 -20 -34 -31 -40 -11 -6 -24 -24 -30 -39 -5 -16 -18 -32 -29 -35 -10 -4 -22 -17 -25 -29 -3 -13 -26 -40 -52 -62 -26 -21 -85 -75 -132 -120 -233 -224 -269 -248 -329 -229 -15 5 -23 -1 -35 -23 -20 -40 -186 -192 -208 -192 -9 0 -22 -9 -28 -20 -6 -11 -20 -20 -31 -20 -25 0 -71 -23 -88 -44 -8 -9 -26 -16 -40 -16 -16 0 -37 -10 -50 -24 -12 -13 -36 -27 -53 -30 -16 -3 -43 -17 -60 -31 -23 -19 -41 -25 -79 -25 -40 0 -54 -5 -73 -25 -18 -20 -37 -26 -87 -32 -47 -5 -69 -12 -87 -30 -19 -20 -33 -23 -91 -23 -52 0 -79 -6 -116 -25 -40 -20 -68 -25 -147 -28 -63 -3 -105 -9 -120 -19 -33 -21 -187 -32 -453 -32 -261 0 -404 10 -455 32 -21 9 -81 17 -150 20 -95 4 -119 8 -142 25 -23 17 -47 22 -126 25 -84 4 -100 7 -118 27 -14 15 -37 24 -75 28 -38 5 -59 13 -71 28 -13 15 -35 23 -78 28 -39 5 -68 15 -82 28 -13 11 -44 24 -69 27 -30 5 -54 15 -69 31 -13 14 -34 25 -48 25 -13 0 -40 14 -59 30 -18 16 -44 30 -56 30 -12 0 -27 8 -33 18 -7 10 -30 23 -51 30 -22 7 -48 21 -58 32 -10 11 -26 20 -36 20 -10 0 -32 12 -48 28 -17 15 -47 40 -68 55 -21 15 -55 41 -77 57 -21 17 -45 30 -52 30 -7 0 -18 9 -24 19 -5 11 -20 23 -32 26 -13 4 -45 29 -73 56 -174 171 -225 219 -234 219 -6 0 -11 5 -11 11 0 5 -27 37 -60 69 -33 32 -60 63 -60 68 0 5 -16 24 -35 43 -19 19 -35 39 -35 46 0 6 -11 20 -25 31 -14 11 -25 25 -25 30 0 11 -59 86 -100 128 -11 12 -20 29 -20 38 0 10 -14 32 -32 49 -19 19 -32 44 -34 62 -1 19 -13 39 -33 56 -18 15 -31 35 -31 48 0 13 -13 36 -30 51 -17 16 -30 38 -30 52 0 29 -26 68 -46 68 -10 0 -14 12 -14 43 0 45 -22 87 -46 87 -10 0 -14 13 -14 53 0 46 -4 57 -30 82 -23 22 -30 38 -30 67 0 29 -7 45 -27 64 -22 21 -27 35 -30 87 -5 86 -10 104 -35 129 -16 16 -23 39 -28 92 -6 76 -22 116 -45 116 -12 0 -15 21 -15 118 0 128 -11 184 -39 204 -17 12 -19 34 -24 233 -5 230 -22 385 -43 385 -18 0 -19 216 -1 227 9 5 17 35 21 78 4 39 11 106 16 150 5 44 9 173 9 287 1 183 3 208 18 216 27 16 43 90 43 208 0 91 3 114 17 125 28 24 43 76 43 151 0 45 6 83 15 98 34 61 45 96 45 147 0 48 4 58 30 83 28 26 30 33 30 99 0 65 2 71 20 71 26 0 40 36 40 106 0 40 4 54 14 54 23 0 46 41 46 82 0 27 5 38 18 43 22 6 42 45 42 81 0 13 11 34 25 46 26 22 51 91 40 108 -3 6 5 14 19 20 18 6 28 21 36 51 7 23 22 51 35 61 13 10 26 31 30 47 3 16 17 37 31 45 13 9 24 26 24 38 0 11 16 37 36 56 27 26 35 41 31 59 -3 19 1 27 19 33 12 5 28 19 35 32 6 13 24 33 40 46 16 13 29 29 29 37 0 7 11 20 25 29 14 9 25 23 25 32 0 8 15 30 33 48 17 18 67 69 109 112 43 43 103 102 134 129 31 28 75 68 98 89 22 22 64 54 91 72 28 17 57 39 64 48 7 9 22 16 32 16 11 0 28 9 39 20 10 10 37 28 60 40 22 11 40 25 40 31 0 5 17 17 38 26 20 8 41 21 45 29 4 8 16 14 26 14 11 0 45 14 76 30 31 17 65 30 75 30 10 0 31 11 47 24 15 13 48 27 73 31 25 4 56 17 70 30 21 19 38 24 108 27 75 3 85 6 102 28 17 23 26 25 127 30 93 4 113 8 137 27 22 18 32 20 48 12 14 -7 23 -7 33 1 10 8 103 10 323 8 275 -3 310 -5 326 -20 21 -21 49 -26 198 -32 99 -4 121 -7 146 -26 22 -16 51 -24 112 -29 68 -6 85 -11 98 -29 14 -18 30 -23 91 -28 59 -4 80 -10 103 -30 19 -15 42 -24 64 -24 21 0 37 -6 40 -14 6 -16 50 -36 88 -40 15 -2 32 -11 39 -19 7 -9 34 -22 61 -29 28 -7 60 -23 73 -36 12 -12 36 -25 52 -28 17 -4 33 -15 36 -25 4 -10 21 -23 39 -28 19 -5 43 -18 55 -30 12 -12 35 -24 52 -28 16 -3 34 -14 40 -24 5 -11 18 -19 28 -19 10 0 29 -9 42 -21 34 -29 78 -51 89 -44 6 3 10 -1 10 -9 0 -19 24 -32 78 -41 57 -9 64 -30 24 -66 -18 -16 -32 -32 -32 -37 0 -5 34 -14 76 -20 88 -14 123 -38 182 -125 19 -29 47 -65 63 -80 23 -22 29 -37 29 -70 l0 -41 27 52 c31 61 60 69 88 25 10 -16 43 -53 75 -83 31 -30 60 -63 63 -72 4 -10 13 -18 22 -18 9 0 21 -14 27 -30 6 -18 19 -32 33 -36 14 -3 26 -16 29 -30 4 -14 18 -29 31 -34 14 -5 25 -14 25 -19 0 -12 156 -171 168 -171 14 0 42 -46 42 -70 0 -15 -10 -22 -45 -31 -48 -12 -51 -23 -8 -34 15 -3 37 -16 49 -28 11 -12 47 -42 79 -67 31 -25 77 -62 102 -82 44 -38 55 -42 126 -52 51 -7 48 12 -7 51 -24 17 -56 51 -70 76 -16 27 -36 47 -51 51 -23 6 -24 9 -18 58 6 47 4 53 -21 73 -22 17 -29 34 -35 80 -6 42 -14 64 -30 77 -15 11 -25 33 -28 60 -7 53 -19 78 -38 78 -8 0 -16 14 -20 35 -3 19 -7 51 -11 71 -3 20 -12 38 -22 41 -25 9 -32 24 -32 66 0 44 -15 77 -34 77 -16 0 -26 30 -26 78 0 40 -15 72 -34 72 -17 0 -26 22 -26 66 0 41 -15 74 -34 74 -17 0 -26 22 -26 65 0 45 -16 85 -34 85 -18 0 -26 22 -26 70 0 30 -7 47 -30 70 -21 22 -30 40 -30 65 0 45 -16 85 -34 85 -10 0 -17 13 -21 35 -3 19 -7 50 -10 68 -3 21 -13 36 -28 42 -17 8 -23 20 -25 55 -2 24 -7 50 -12 56 -14 16 -109 -6 -144 -33 -21 -17 -42 -23 -76 -23 -71 0 -112 -11 -117 -30 -4 -14 -23 -20 -86 -28 -65 -8 -85 -15 -96 -31 -11 -17 -24 -21 -73 -21 -59 0 -113 -19 -120 -42 -6 -17 -180 -16 -186 1 -8 23 -62 41 -127 41 -50 0 -65 3 -65 15 0 22 -28 32 -103 38 -52 4 -74 10 -92 27 -20 19 -40 24 -114 29 -76 5 -93 10 -111 29 -21 22 -39 27 -97 23 -44 -3 -141 17 -178 38 -25 13 -79 17 -310 23 -154 4 -310 10 -346 13 -44 4 -69 3 -74 -4z m2315 -733 c11 -12 20 -26 20 -30 0 -15 -183 -5 -188 10 -3 9 7 13 35 12 54 -1 82 5 95 18 15 15 14 16 38 -10z m76 -93 c8 -32 -1 -55 -21 -55 -10 0 -15 10 -15 33 0 51 25 66 36 22z m66 -100 c11 -25 -2 -55 -23 -55 -14 0 -32 47 -26 64 9 24 36 19 49 -9z m658 -760 c0 -9 -9 -15 -24 -15 -28 0 -43 16 -24 23 26 11 48 7 48 -8z m-671 -5429 c9 -11 8 -18 -4 -30 -25 -25 -48 -21 -39 7 5 17 20 36 30 37 1 0 7 -6 13 -14z m-49 -60 c0 -15 -21 -56 -29 -56 -15 0 -22 32 -10 46 11 13 39 20 39 10z m-240 -106 c0 -5 -7 -10 -15 -10 -8 0 -15 5 -15 10 0 6 7 10 15 10 8 0 15 -4 15 -10z m59 -49 c9 -6 11 -18 6 -40 -5 -24 -12 -31 -31 -31 -20 0 -24 5 -24 28 0 25 15 52 30 52 3 0 11 -4 19 -9z"/> <path d="M5405 29656 l-30 -12 34 -12 c42 -15 101 -15 138 -1 27 10 27 11 9 25 -24 17 -110 18 -151 0z"/> <path d="M4828 29623 c-22 -6 -23 -19 -2 -27 28 -11 274 -7 296 5 39 21 -2 29 -142 28 -74 -1 -143 -3 -152 -6z"/> <path d="M4363 29573 c-7 -2 -13 -11 -13 -19 0 -11 19 -14 88 -14 92 0 130 11 102 30 -15 10 -155 13 -177 3z"/> <path d="M4080 29507 l-35 -11 39 -4 c43 -4 66 2 66 18 0 13 -25 12 -70 -3z"/> <path d="M3939 29452 c-13 -11 -37 -22 -53 -26 -17 -4 -45 -19 -63 -34 -18 -15 -48 -39 -67 -54 -24 -20 -49 -29 -92 -34 -79 -8 -97 -15 -59 -24 58 -14 106 -11 132 10 14 11 31 20 38 20 6 0 24 14 38 30 15 17 33 30 41 30 7 0 30 14 51 30 21 17 48 30 60 30 12 0 30 9 40 20 18 20 17 20 -12 20 -17 0 -41 -8 -54 -18z"/> <path d="M2901 29367 l-65 -32 -16 -73 c-10 -40 -19 -75 -21 -77 -2 -3 -15 -19 -29 -36 -48 -60 -177 -184 -269 -259 -147 -120 -291 -265 -291 -294 0 -37 17 -41 35 -7 29 58 215 235 306 293 46 29 236 222 244 248 4 14 18 35 31 47 13 12 24 33 24 47 0 37 17 76 34 76 8 0 38 17 67 37 48 33 61 37 118 37 42 1 66 5 68 14 4 9 -17 12 -84 11 -78 0 -95 -4 -152 -32z"/> <path d="M3291 29351 c-11 -7 -10 -11 7 -20 45 -24 141 -5 101 20 -18 11 -90 11 -108 0z"/> <path d="M6000 29262 c-13 -20 -48 -63 -77 -94 -29 -31 -53 -61 -53 -67 0 -6 -13 -17 -30 -26 -43 -22 -41 -61 8 -106 71 -68 108 -91 144 -87 46 4 39 20 -21 43 -28 11 -65 32 -82 47 -48 43 -35 82 60 174 42 41 79 74 83 74 4 0 15 14 24 31 13 26 14 33 2 40 -23 15 -32 10 -58 -29z"/> <path d="M7880 28950 c-8 -5 -24 -10 -36 -10 -27 0 -164 -149 -164 -178 0 -6 -16 -29 -35 -52 -19 -23 -35 -50 -35 -61 0 -10 -8 -23 -19 -28 -10 -6 -24 -25 -31 -43 -8 -18 -27 -47 -44 -64 -17 -17 -42 -43 -56 -58 -23 -26 -28 -28 -92 -24 -56 3 -72 8 -95 30 -15 15 -46 30 -68 34 -22 3 -58 15 -79 25 -52 25 -129 26 -124 2 3 -14 69 -63 103 -77 48 -18 209 -56 241 -56 48 0 95 13 120 33 10 9 34 28 52 42 17 15 32 32 32 39 0 7 14 25 30 41 17 16 30 35 30 42 0 8 11 25 25 39 14 14 31 39 39 57 7 18 23 43 35 56 11 13 21 30 21 37 0 13 75 88 108 108 10 6 34 21 53 33 39 26 99 23 134 -6 11 -10 31 -24 45 -33 14 -9 55 -38 90 -66 36 -28 77 -60 93 -72 48 -38 119 -71 136 -64 13 5 11 9 -10 18 -14 6 -40 23 -58 39 -18 15 -36 27 -40 27 -3 0 -21 12 -38 28 -51 45 -147 118 -170 131 -12 6 -30 11 -41 11 -11 0 -25 7 -32 15 -14 17 -96 20 -120 5z"/> <path d="M6147 28858 c-23 -14 1 -18 131 -23 122 -4 161 2 130 22 -16 9 -245 11 -261 1z"/> <path d="M10202 28665 c53 -67 60 -74 54 -52 -3 6 -7 24 -10 39 -6 25 -66 78 -89 78 -4 0 16 -29 45 -65z"/> <path d="M9885 28706 c-67 -12 -88 -22 -79 -38 9 -14 76 -2 124 23 62 32 57 34 -45 15z"/> <path d="M8477 28679 c8 -8 56 -14 124 -17 92 -4 111 -2 107 9 -4 11 -33 15 -124 17 -93 2 -116 0 -107 -9z"/> <path d="M9672 28639 c-29 -11 -28 -29 2 -29 30 0 56 9 56 20 0 12 -34 18 -58 9z"/> <path d="M8820 28631 c0 -11 59 -25 85 -19 36 7 17 23 -32 26 -31 2 -53 -1 -53 -7z"/> <path d="M8385 28496 c-10 -15 -30 -28 -50 -32 -19 -3 -41 -14 -51 -25 -9 -10 -33 -24 -53 -30 -20 -6 -44 -20 -54 -30 -10 -11 -26 -19 -36 -19 -10 0 -35 -11 -55 -25 -19 -13 -58 -27 -85 -31 -34 -4 -56 -14 -70 -30 -15 -17 -31 -24 -57 -24 -41 0 -74 -15 -74 -34 0 -10 -21 -16 -72 -21 -86 -9 -118 -19 -118 -39 0 -11 -20 -15 -84 -17 -72 -3 -88 -7 -109 -27 -22 -21 -37 -24 -124 -27 -72 -2 -110 -9 -143 -24 -25 -11 -55 -21 -68 -21 -28 0 -82 -27 -82 -41 0 -16 52 -31 100 -28 25 1 91 1 148 0 80 -1 102 -4 102 -15 0 -19 53 -36 114 -36 55 0 69 -6 79 -32 3 -9 19 -19 34 -22 38 -9 120 -84 128 -117 4 -15 17 -31 29 -37 20 -9 24 -20 29 -78 4 -55 9 -71 28 -85 l24 -18 0 -3359 0 -3360 -24 -19 c-19 -16 -25 -32 -29 -78 -4 -50 -10 -63 -38 -92 -19 -19 -34 -40 -34 -48 0 -7 -8 -16 -18 -19 -10 -4 -27 -15 -39 -25 -11 -10 -38 -30 -60 -44 -23 -15 -44 -31 -48 -37 -3 -5 -32 -10 -63 -10 -34 0 -86 -10 -130 -25 -61 -21 -93 -25 -182 -25 -86 0 -110 -3 -121 -16 -20 -25 9 -70 42 -65 13 3 489 6 1057 8 880 3 1032 1 1032 -11 0 -8 7 -16 15 -20 20 -7 37 27 33 71 l-3 36 -125 2 c-104 1 -134 5 -178 23 -34 14 -74 22 -111 22 -41 0 -62 5 -72 16 -7 8 -26 23 -43 32 -70 38 -116 78 -131 116 -9 21 -24 40 -34 43 -19 5 -36 56 -25 74 11 18 -18 130 -37 140 -18 9 -19 42 -19 889 0 753 2 880 14 880 8 0 24 16 36 35 12 19 25 35 29 35 4 0 35 26 69 58 33 31 97 91 143 132 46 41 112 104 148 139 36 35 95 89 131 120 36 31 107 98 158 149 98 96 107 101 179 86 22 -4 33 -14 42 -40 7 -19 23 -42 37 -50 13 -9 24 -25 24 -35 0 -11 16 -35 35 -55 19 -19 35 -43 35 -53 0 -10 11 -26 25 -35 14 -9 25 -22 25 -30 0 -7 16 -30 35 -50 19 -21 35 -46 35 -56 0 -11 11 -27 25 -36 14 -9 25 -23 25 -31 0 -8 16 -30 35 -50 19 -20 35 -44 35 -54 0 -10 9 -23 21 -29 11 -7 28 -28 36 -48 8 -20 24 -43 34 -50 10 -7 19 -20 19 -28 0 -7 16 -31 35 -53 19 -21 35 -45 35 -54 0 -8 11 -22 25 -31 14 -9 25 -23 25 -31 0 -8 16 -32 35 -54 19 -21 35 -44 35 -51 0 -7 14 -28 30 -47 17 -18 30 -40 30 -48 0 -8 11 -22 25 -31 14 -9 25 -24 25 -33 0 -9 16 -32 35 -51 19 -19 35 -40 35 -47 0 -7 14 -27 30 -45 17 -17 30 -36 30 -43 0 -6 14 -24 30 -40 17 -16 30 -37 30 -46 0 -10 10 -28 23 -41 13 -13 32 -36 42 -53 10 -16 27 -36 37 -43 10 -7 18 -21 18 -31 0 -9 14 -30 30 -46 17 -16 30 -36 30 -45 0 -9 9 -25 21 -36 12 -10 28 -32 37 -49 8 -16 28 -42 43 -56 16 -15 29 -34 29 -42 0 -8 7 -20 16 -28 8 -7 24 -30 35 -50 10 -21 28 -40 39 -44 14 -4 20 -15 20 -35 0 -20 8 -35 24 -45 13 -9 29 -29 36 -44 6 -16 22 -39 36 -52 13 -12 24 -31 24 -41 0 -9 12 -25 26 -35 15 -9 33 -31 41 -48 7 -16 34 -57 58 -90 25 -33 51 -74 59 -91 9 -17 22 -34 30 -37 9 -4 22 -22 30 -41 8 -19 24 -39 35 -46 12 -6 21 -18 21 -28 0 -9 16 -37 35 -61 19 -24 35 -48 35 -52 0 -5 11 -19 25 -31 14 -12 25 -29 25 -39 0 -9 12 -28 28 -41 15 -12 34 -38 41 -55 7 -18 17 -33 22 -33 5 0 17 -17 28 -37 10 -21 33 -50 50 -66 17 -15 31 -32 31 -37 0 -16 30 -12 36 5 6 13 77 15 581 15 494 -1 575 -3 580 -15 3 -8 16 -15 28 -15 19 0 24 7 30 41 4 25 3 45 -4 52 -6 6 -49 12 -96 14 -61 2 -97 9 -125 23 -29 15 -59 20 -112 20 -62 0 -79 4 -110 25 -22 15 -51 25 -72 25 -25 0 -38 6 -46 20 -6 11 -24 27 -40 35 -36 18 -44 26 -187 163 -62 59 -113 116 -113 125 0 9 -11 24 -25 33 -14 9 -25 23 -25 31 0 8 -16 30 -35 50 -19 20 -35 42 -35 50 0 7 -9 22 -19 32 -11 11 -27 34 -36 50 -8 17 -27 38 -40 47 -15 10 -25 26 -25 40 0 13 -9 29 -21 36 -11 7 -29 30 -40 50 -10 21 -28 42 -39 48 -11 6 -20 19 -20 28 0 16 -55 92 -100 137 -11 12 -20 28 -20 36 0 8 -13 28 -30 44 -16 16 -30 34 -30 42 0 7 -13 28 -30 46 -16 19 -30 38 -30 42 0 4 -16 25 -35 46 -19 22 -35 45 -35 53 0 7 -11 21 -25 30 -14 9 -25 23 -25 31 0 8 -13 27 -30 42 -16 14 -30 35 -30 45 0 10 -11 29 -24 41 -13 12 -31 37 -40 55 -9 18 -25 38 -36 45 -11 6 -20 22 -20 34 0 13 -12 30 -30 43 -16 12 -30 27 -30 35 0 7 -13 25 -30 38 -16 14 -30 33 -30 41 0 9 -16 33 -35 55 -19 21 -35 46 -35 54 0 9 -11 24 -25 33 -14 9 -25 23 -25 31 0 9 -16 33 -35 54 -19 22 -35 44 -35 50 0 13 -42 68 -87 113 -18 18 -33 42 -33 54 0 12 -9 26 -20 32 -11 6 -26 26 -34 45 -8 18 -23 38 -34 44 -11 6 -23 25 -27 42 -4 17 -13 33 -21 36 -8 3 -25 24 -39 47 -13 22 -34 47 -45 54 -11 7 -18 17 -14 23 3 6 -7 25 -23 42 -16 18 -38 46 -48 62 -10 17 -24 34 -32 38 -7 4 -13 15 -13 22 0 8 -15 32 -34 52 -18 21 -36 48 -40 61 -4 12 -16 27 -27 32 -10 6 -19 18 -19 26 0 8 -16 31 -35 51 -19 20 -35 41 -35 48 0 7 -9 20 -21 31 -12 10 -30 36 -40 56 -11 21 -28 42 -38 48 -11 5 -21 22 -23 37 -2 16 -12 32 -23 37 -11 5 -30 32 -43 60 -22 49 -22 53 -6 93 10 26 25 45 38 49 12 3 33 18 47 33 14 14 45 43 70 65 135 118 277 245 300 266 40 39 171 156 285 255 114 99 377 335 619 555 44 40 94 81 112 92 17 10 34 26 37 34 3 8 19 20 35 25 17 6 33 18 36 27 6 18 70 61 123 82 18 7 37 21 43 31 5 11 20 19 34 19 13 0 37 11 53 25 21 17 46 26 88 31 36 4 71 14 89 27 25 18 49 23 142 27 61 3 115 8 119 12 4 4 2 14 -5 21 -6 8 -8 27 -5 46 5 23 3 31 -7 31 -8 0 -393 1 -856 3 l-841 2 -4 -50 c-3 -27 -3 -53 -1 -57 2 -5 69 -8 148 -8 135 0 145 -1 172 -23 15 -13 43 -29 61 -36 17 -8 32 -17 32 -22 0 -4 16 -24 35 -45 32 -34 35 -42 35 -99 0 -55 -3 -64 -30 -90 -16 -16 -30 -38 -30 -49 0 -11 -15 -33 -32 -51 -18 -17 -52 -51 -76 -75 -24 -25 -57 -58 -75 -73 -18 -15 -61 -55 -97 -88 -36 -33 -98 -88 -137 -122 -40 -34 -73 -65 -73 -69 0 -4 -13 -14 -30 -23 -16 -9 -30 -22 -30 -30 0 -8 -13 -21 -29 -30 -16 -8 -31 -18 -33 -23 -1 -5 -37 -38 -79 -75 -41 -36 -102 -91 -135 -121 -64 -61 -78 -74 -204 -186 -46 -41 -98 -88 -116 -105 -54 -50 -196 -179 -243 -221 -24 -21 -68 -61 -97 -89 -69 -65 -159 -145 -208 -187 -22 -18 -64 -57 -93 -85 -30 -29 -58 -53 -64 -53 -5 0 -14 -11 -19 -25 -5 -14 -15 -25 -22 -25 -7 0 -24 -11 -38 -25 -49 -49 -113 -106 -146 -132 -19 -14 -34 -32 -34 -39 0 -8 -12 -19 -27 -25 -34 -13 -150 -7 -181 10 l-22 12 0 2687 c0 2342 -2 2687 -14 2690 -8 2 -22 -8 -31 -22z"/> <path d="M2202 28418 c-7 -7 -12 -19 -12 -27 0 -11 4 -10 20 4 21 19 26 35 12 35 -4 0 -13 -5 -20 -12z"/> <path d="M10287 28363 c-10 -9 -8 -86 2 -102 7 -11 11 -10 20 7 24 45 6 123 -22 95z"/> <path d="M2150 28320 c-6 -11 -7 -20 -2 -20 10 0 32 21 32 32 0 16 -19 8 -30 -12z"/> <path d="M9847 28304 c-14 -15 -6 -43 38 -132 l45 -91 35 20 35 21 32 -24 c18 -12 49 -39 69 -58 77 -75 113 -92 137 -68 13 13 16 66 6 92 -5 14 -9 13 -31 -4 -32 -25 -55 -25 -77 -2 -9 11 -44 38 -79 62 -42 29 -78 65 -112 114 -47 66 -79 89 -98 70z"/> <path d="M2078 28253 c-23 -21 -53 -50 -66 -65 -13 -16 -30 -28 -37 -28 -8 0 -39 -20 -69 -44 -29 -25 -72 -54 -95 -65 -23 -12 -41 -26 -41 -31 0 -5 -9 -11 -20 -15 -11 -3 -32 -19 -47 -36 -15 -16 -34 -29 -42 -29 -8 0 -29 -11 -47 -25 -18 -14 -37 -25 -42 -25 -5 0 -17 -10 -28 -21 -10 -12 -31 -27 -45 -33 -22 -9 -55 -44 -119 -123 -15 -18 -12 -53 4 -53 8 0 26 20 40 44 30 51 37 58 101 106 26 19 58 45 71 57 14 13 38 30 53 38 16 8 31 21 34 30 4 8 14 15 22 15 9 0 36 14 60 30 24 17 48 30 54 30 5 0 17 7 26 16 8 9 50 38 91 65 79 52 204 166 204 187 0 21 -19 13 -62 -25z"/> <path d="M9970 28015 c0 -21 22 -65 33 -65 5 0 7 10 3 23 -3 12 -6 30 -6 40 0 9 -7 17 -15 17 -8 0 -15 -7 -15 -15z"/> <path d="M10023 27874 c3 -19 20 -51 36 -70 17 -19 31 -42 31 -50 0 -8 11 -25 23 -37 13 -12 27 -34 30 -49 4 -14 18 -40 32 -56 14 -17 25 -36 25 -43 0 -8 8 -26 18 -40 53 -80 62 -96 62 -120 0 -15 7 -33 16 -40 9 -8 25 -33 35 -56 10 -24 23 -43 29 -43 6 0 20 -15 31 -34 13 -23 33 -39 57 -47 20 -7 43 -20 50 -31 7 -10 22 -18 32 -18 11 0 56 -35 101 -77 44 -43 85 -79 90 -81 5 -2 9 6 9 17 0 29 -63 96 -115 121 -24 12 -49 28 -56 36 -7 9 -30 23 -51 31 -21 8 -38 19 -38 23 0 4 -18 19 -39 34 -22 15 -42 38 -45 51 -3 13 -17 37 -31 53 -13 16 -33 50 -44 75 -11 24 -24 48 -29 51 -6 3 -18 29 -27 57 -10 28 -23 53 -31 56 -7 2 -18 21 -25 41 -7 21 -22 50 -35 65 -13 16 -24 37 -24 48 0 11 -11 31 -24 44 -13 13 -29 40 -36 60 -22 67 -67 90 -57 29z"/> <path d="M1417 27594 c-19 -20 5 -104 29 -104 20 0 28 45 12 76 -14 29 -29 39 -41 28z"/> <path d="M1409 27285 c-35 -37 -73 -55 -117 -55 -43 0 -66 -18 -60 -47 5 -24 23 -20 135 33 81 38 93 47 93 69 0 32 -21 32 -51 0z"/> <path d="M1185 27100 c-35 -39 -29 -180 9 -180 23 0 36 25 43 78 7 61 -3 122 -21 122 -7 0 -21 -9 -31 -20z"/> <path d="M10740 26956 c0 -18 30 -76 40 -76 20 0 6 52 -17 68 -13 8 -23 11 -23 8z"/> <path d="M1127 26862 c-14 -16 -17 -44 -17 -181 0 -157 1 -163 24 -184 13 -12 27 -33 31 -47 8 -26 79 -100 96 -100 28 0 17 35 -28 87 l-49 58 2 175 c1 96 -2 183 -8 193 -11 22 -31 22 -51 -1z"/> <path d="M10796 26772 c-7 -12 4 -52 15 -52 12 0 12 47 0 55 -5 3 -12 2 -15 -3z"/> <path d="M10797 26493 c-14 -13 -6 -42 15 -57 30 -21 48 -20 48 2 0 38 -43 76 -63 55z"/> <path d="M10880 26402 c0 -17 25 -32 52 -32 15 0 35 -8 45 -19 10 -10 54 -49 98 -86 50 -42 88 -83 100 -108 22 -46 38 -53 43 -20 4 28 -76 133 -140 184 -27 21 -54 39 -60 39 -5 0 -24 11 -42 25 -31 24 -96 35 -96 17z"/> <path d="M1242 26247 c-18 -21 -26 -93 -12 -102 19 -12 44 22 44 60 0 42 -15 62 -32 42z"/> <path d="M1181 26101 c-15 -15 -21 -34 -21 -65 0 -35 -5 -47 -24 -60 -23 -15 -24 -21 -28 -135 -3 -119 -3 -120 -35 -153 -38 -39 -72 -111 -73 -151 0 -32 16 -68 36 -80 8 -4 14 -18 14 -30 0 -12 12 -49 26 -82 14 -33 32 -78 40 -100 8 -22 23 -49 32 -60 10 -11 33 -51 52 -90 39 -79 72 -128 133 -198 45 -53 177 -166 217 -187 14 -7 27 -16 30 -19 3 -3 30 -25 60 -48 31 -23 65 -55 77 -71 11 -15 49 -51 83 -78 34 -27 98 -84 143 -126 45 -43 86 -78 91 -78 4 0 27 -19 50 -41 66 -67 143 -121 235 -165 19 -9 51 -27 70 -40 41 -28 112 -35 91 -9 -7 8 -27 17 -45 21 -34 6 -118 54 -165 93 -62 53 -157 128 -176 141 -74 51 -190 148 -254 215 -41 42 -93 90 -116 105 -129 90 -389 368 -431 460 -11 25 -39 64 -62 87 -26 27 -41 51 -41 67 0 33 -17 76 -40 101 -10 11 -24 39 -31 62 -7 24 -23 50 -36 58 -20 13 -23 24 -23 75 0 44 5 65 18 78 9 10 38 41 65 70 l47 51 0 120 c0 103 3 125 21 155 14 24 19 48 17 77 -4 49 -18 59 -47 30z"/> <path d="M11236 25994 c-12 -31 -6 -81 12 -97 9 -8 29 -19 45 -22 15 -4 32 -15 37 -25 5 -10 23 -21 40 -25 17 -4 43 -17 58 -29 29 -25 77 -40 92 -31 18 11 -8 43 -39 50 -17 3 -41 15 -54 25 -13 10 -37 22 -53 25 -16 4 -36 9 -45 11 -14 4 -47 65 -63 117 -7 21 -22 22 -30 1z"/> <path d="M13327 25533 c-13 -12 -7 -23 24 -38 19 -10 37 -32 49 -61 22 -50 40 -57 40 -16 0 55 -86 142 -113 115z"/> <path d="M13194 25515 c-18 -13 -17 -14 19 -15 38 0 50 13 21 24 -20 8 -17 8 -40 -9z"/> <path d="M13060 25459 l-25 -21 44 5 c24 3 51 13 60 21 14 15 12 16 -19 16 -20 0 -46 -9 -60 -21z"/> <path d="M12888 25423 c-9 -2 -19 -11 -22 -19 -7 -18 45 -20 77 -2 21 11 21 11 2 19 -22 8 -32 9 -57 2z"/> <path d="M12733 25363 c-28 -11 -10 -24 29 -21 51 4 66 28 16 27 -18 0 -39 -3 -45 -6z"/> <path d="M12615 25312 l-30 -17 33 -3 c32 -3 62 11 62 29 0 14 -32 10 -65 -9z"/> <path d="M13410 25191 c-5 -11 -10 -28 -10 -38 0 -10 -13 -34 -30 -53 -16 -19 -29 -45 -30 -57 0 -12 -11 -30 -23 -40 -13 -10 -30 -30 -37 -43 -7 -14 -21 -34 -31 -45 -50 -55 -88 -103 -102 -131 -9 -17 -23 -36 -31 -43 -9 -8 -16 -23 -16 -34 0 -12 -13 -35 -29 -52 -28 -29 -50 -105 -30 -105 13 0 49 61 49 82 0 10 13 32 29 50 15 18 31 43 35 55 4 11 13 24 21 27 8 3 23 22 35 43 11 21 36 58 55 83 19 25 43 56 52 70 9 14 30 40 45 58 15 18 28 41 28 50 0 10 11 33 25 52 25 33 34 90 15 90 -5 0 -14 -9 -20 -19z"/> <path d="M12971 24403 c-38 -84 -82 -141 -156 -202 -17 -14 -64 -57 -106 -95 -262 -246 -307 -283 -369 -312 -19 -9 -44 -24 -55 -34 -11 -9 -33 -20 -48 -24 -16 -4 -39 -18 -51 -31 -13 -14 -35 -25 -49 -25 -14 0 -38 -10 -54 -23 -15 -12 -39 -28 -53 -35 -67 -34 -199 -123 -227 -153 -12 -13 -25 -36 -28 -51 -4 -15 -17 -33 -29 -41 -12 -8 -28 -34 -35 -58 -7 -24 -21 -49 -31 -56 -9 -7 -20 -27 -24 -45 -3 -18 -17 -44 -30 -58 -24 -25 -45 -100 -28 -100 16 0 29 22 43 70 7 25 21 51 30 58 10 6 21 27 24 45 4 17 20 46 35 64 16 17 31 45 35 62 3 16 14 33 24 36 10 3 23 16 30 28 7 13 26 31 42 41 16 9 34 26 39 37 6 10 19 19 30 19 10 0 33 12 51 28 36 30 88 64 134 85 17 8 39 24 49 36 11 11 29 21 42 21 12 0 35 11 51 24 16 14 43 28 59 32 58 13 202 121 337 253 183 178 307 304 307 311 0 3 14 22 30 40 30 33 36 54 24 84 -10 26 -20 19 -43 -31z"/> <path d="M4495 24256 c-11 -8 -17 -17 -14 -21 11 -10 80 6 76 19 -6 17 -40 18 -62 2z"/> <path d="M4735 24260 c-4 -6 6 -16 22 -23 16 -6 40 -20 53 -30 14 -9 50 -34 80 -54 30 -20 66 -48 80 -62 132 -134 217 -198 237 -177 8 7 -16 36 -31 36 -6 0 -63 50 -126 110 -63 61 -119 110 -125 110 -6 0 -24 14 -40 30 -16 17 -38 30 -49 30 -12 0 -34 9 -51 20 -34 23 -41 24 -50 10z"/> <path d="M4379 24211 c-13 -11 -21 -23 -17 -27 12 -12 88 15 88 31 0 21 -43 19 -71 -4z"/> <path d="M4249 24150 l-24 -19 33 -1 c36 0 72 15 72 30 0 18 -57 11 -81 -10z"/> <path d="M4135 24115 c-5 -2 -23 -6 -38 -9 -35 -8 -26 -26 13 -26 39 0 83 18 75 30 -6 10 -29 12 -50 5z"/> <path d="M3492 24051 c-20 -12 6 -20 43 -13 26 5 27 6 10 13 -27 10 -37 10 -53 0z"/> <path d="M3673 24043 c9 -2 25 -2 35 0 9 3 1 5 -18 5 -19 0 -27 -2 -17 -5z"/> <path d="M3200 24030 c0 -5 9 -10 20 -10 11 0 20 5 20 10 0 6 -9 10 -20 10 -11 0 -20 -4 -20 -10z"/> <path d="M2542 23993 c4 -21 51 -37 86 -28 l27 7 -24 19 c-30 25 -94 26 -89 2z"/> <path d="M2983 24000 c-13 -5 -23 -14 -23 -19 0 -21 68 -28 101 -10 16 8 18 13 8 25 -13 16 -52 17 -86 4z"/> <path d="M5450 23880 c0 -5 19 -10 43 -10 31 0 38 3 27 10 -20 13 -70 13 -70 0z"/> <path d="M5740 23831 c0 -12 26 -21 59 -21 15 0 45 -13 67 -30 41 -31 69 -39 62 -17 -3 6 -24 27 -47 45 -35 26 -52 32 -92 32 -27 0 -49 -4 -49 -9z"/> <path d="M5940 23687 c0 -43 9 -69 21 -61 15 9 10 71 -6 84 -13 11 -15 7 -15 -23z"/> <path d="M11556 23027 c-26 -26 -35 -70 -17 -82 15 -9 40 23 47 61 9 46 1 52 -30 21z"/> <path d="M5940 22981 c-18 -34 -12 -90 15 -129 14 -20 25 -42 25 -48 0 -12 50 -79 88 -119 10 -11 25 -31 32 -45 7 -14 38 -51 69 -82 31 -32 72 -79 91 -104 19 -25 47 -59 63 -76 15 -16 27 -36 27 -43 0 -8 13 -29 29 -47 15 -18 31 -43 35 -56 4 -12 16 -27 27 -32 16 -9 19 -7 19 13 0 13 -9 32 -21 43 -11 10 -27 33 -34 51 -8 19 -21 36 -30 39 -8 3 -24 25 -35 48 -11 22 -35 61 -55 86 -46 60 -105 148 -105 159 0 4 -15 24 -32 43 -43 46 -98 122 -98 135 0 5 -11 24 -24 42 -14 18 -28 52 -31 74 -11 65 -35 85 -55 48z"/> <path d="M11487 22902 c-21 -24 -23 -82 -2 -82 19 0 35 31 35 69 0 35 -10 39 -33 13z"/> <path d="M11430 22761 c-12 -24 -13 -81 -2 -81 12 0 32 47 32 75 0 30 -15 33 -30 6z"/> <path d="M11376 22618 c-11 -34 -15 -98 -7 -98 8 0 31 74 31 99 0 15 -20 14 -24 -1z"/> <path d="M6476 22162 c-8 -13 2 -61 17 -79 16 -21 27 -15 27 16 0 33 -33 81 -44 63z"/> <path d="M6534 22036 c-9 -24 9 -81 26 -81 24 0 25 58 1 79 -19 17 -21 17 -27 2z"/> <path d="M11420 21921 c0 -11 5 -23 10 -26 6 -3 10 3 10 14 0 11 -4 23 -10 26 -5 3 -10 -3 -10 -14z"/> <path d="M6594 21827 c-10 -26 4 -83 27 -109 l20 -23 -4 58 c-4 63 -30 107 -43 74z"/> <path d="M11534 21737 c-7 -20 1 -47 15 -47 17 0 22 33 7 49 -14 13 -16 13 -22 -2z"/> <path d="M13152 21698 c-7 -7 -12 -38 -12 -70 0 -55 1 -58 25 -58 18 0 31 -10 45 -32 36 -62 45 -67 48 -27 2 24 -6 52 -22 84 -15 26 -26 56 -26 66 0 17 -25 49 -39 49 -4 0 -12 -5 -19 -12z"/> <path d="M6667 21634 c-11 -11 -8 -49 5 -62 18 -18 38 -14 38 7 0 23 -33 65 -43 55z"/> <path d="M13110 21508 c0 -7 -3 -24 -7 -38 -6 -22 -5 -24 10 -11 18 15 23 61 7 61 -5 0 -10 -6 -10 -12z"/> <path d="M6720 21483 c0 -32 24 -72 36 -60 11 10 -8 80 -23 85 -9 2 -13 -7 -13 -25z"/> <path d="M13068 21423 c-17 -19 -29 -93 -16 -93 4 0 8 8 8 17 0 9 6 24 14 32 18 21 30 61 18 61 -5 0 -16 -8 -24 -17z"/> <path d="M13285 21388 c10 -63 14 -76 30 -82 17 -6 20 24 6 52 -6 9 -12 29 -16 45 -9 46 -28 32 -20 -15z"/> <path d="M12991 21284 c-12 -15 -21 -33 -21 -40 0 -8 -9 -23 -19 -33 -11 -11 -27 -33 -35 -48 -27 -53 -163 -188 -234 -233 -72 -45 -86 -60 -56 -60 65 0 309 220 341 306 3 11 19 34 35 52 27 31 38 82 19 82 -5 0 -19 -12 -30 -26z"/> <path d="M13349 21250 c-3 -63 11 -110 32 -110 15 0 1 101 -17 120 -12 12 -14 11 -15 -10z"/> <path d="M6736 21212 c-3 -5 -10 -30 -16 -57 -7 -30 -20 -55 -35 -67 -14 -11 -25 -26 -25 -33 0 -8 -13 -29 -29 -47 -15 -18 -31 -43 -35 -55 -4 -13 -20 -36 -37 -52 -16 -16 -29 -40 -29 -53 0 -13 -11 -39 -25 -58 -17 -23 -25 -47 -25 -74 1 -39 2 -40 16 -21 8 11 19 36 24 55 5 20 21 47 35 60 13 13 28 39 31 58 4 19 17 44 30 55 13 11 24 26 24 32 0 7 13 30 28 51 35 48 92 170 92 195 0 19 -15 26 -24 11z"/> <path d="M12396 20884 c-22 -21 -20 -44 3 -44 26 0 66 34 57 48 -10 17 -42 15 -60 -4z"/> <path d="M6434 20585 c-8 -20 3 -48 16 -40 13 8 13 55 0 55 -6 0 -13 -7 -16 -15z"/> <path d="M13357 20553 c-4 -3 -7 -27 -7 -52 0 -56 19 -44 27 18 5 38 -3 52 -20 34z"/> <path d="M11060 20459 c-14 -5 -29 -15 -35 -22 -5 -7 -24 -22 -42 -32 -141 -87 -293 -222 -293 -259 0 -30 26 -16 67 34 50 61 183 162 277 210 38 19 75 45 84 58 14 21 13 22 -9 21 -13 0 -35 -5 -49 -10z"/> <path d="M13308 20400 c-19 -30 -35 -151 -18 -134 13 13 42 132 37 148 -2 6 -11 -1 -19 -14z"/> <path d="M6480 20350 c0 -21 24 -60 37 -60 10 0 12 8 7 28 -4 15 -9 30 -11 35 -6 10 -33 9 -33 -3z"/> <path d="M6535 20238 c4 -18 17 -44 30 -58 13 -14 28 -43 34 -66 6 -22 20 -49 30 -58 11 -10 23 -31 26 -47 4 -16 17 -36 30 -45 14 -9 26 -30 30 -52 12 -65 45 -86 45 -29 0 23 -8 41 -25 57 -14 13 -25 32 -25 41 0 10 -13 33 -28 51 -16 18 -32 47 -36 63 -4 17 -18 41 -31 55 -12 14 -26 36 -30 50 -18 64 -62 97 -50 38z"/> <path d="M13227 20164 c-10 -11 -8 -44 2 -44 6 0 13 4 16 10 8 12 -9 43 -18 34z"/> <path d="M13106 19824 c-3 -9 -6 -25 -6 -36 0 -17 3 -18 15 -8 16 13 21 60 6 60 -5 0 -12 -7 -15 -16z"/> <path d="M6774 19796 c-10 -25 14 -96 31 -96 24 0 20 73 -5 95 -18 17 -20 17 -26 1z"/> <path d="M10697 19783 c-7 -6 -2 -80 9 -132 10 -48 25 -4 22 64 -3 63 -13 86 -31 68z"/> <path d="M12206 19754 c-10 -25 -7 -84 4 -84 6 0 10 23 10 50 0 52 -4 61 -14 34z"/> <path d="M13067 19738 c-14 -10 -18 -24 -15 -53 l3 -40 18 33 c10 18 17 42 15 53 -3 18 -5 18 -21 7z"/> <path d="M6837 19633 c-11 -10 -8 -62 4 -84 8 -16 13 -18 25 -8 16 13 18 52 4 80 -11 20 -22 24 -33 12z"/> <path d="M12206 19532 c-11 -18 5 -130 20 -143 8 -6 19 -29 25 -51 11 -41 97 -138 123 -138 7 0 19 -7 26 -15 7 -9 29 -15 53 -15 46 0 41 12 -14 29 -36 12 -129 88 -129 107 0 5 -13 25 -29 44 -42 52 -64 99 -58 129 6 32 -6 70 -17 53z"/> <path d="M10707 19523 c-3 -5 -10 -26 -16 -48 -12 -47 -113 -156 -181 -195 -23 -14 -55 -36 -70 -50 -107 -96 -110 -100 -110 -136 0 -47 19 -41 45 14 12 25 42 58 71 80 27 20 58 45 69 55 11 10 47 39 80 65 33 26 61 49 63 52 1 3 18 30 37 59 34 51 44 94 26 106 -5 3 -12 2 -14 -2z"/> <path d="M12980 19445 c-18 -55 6 -91 30 -46 10 21 3 81 -10 81 -5 0 -14 -16 -20 -35z"/> <path d="M12928 19292 c-19 -21 -38 -57 -38 -71 0 -16 36 -13 54 5 17 16 22 69 7 78 -4 3 -15 -2 -23 -12z"/> <path d="M6917 19277 c-8 -21 4 -59 17 -54 12 5 10 47 -3 60 -5 5 -11 2 -14 -6z"/> <path d="M12743 19178 c5 -16 65 -14 80 1 8 8 -2 11 -37 11 -34 0 -46 -4 -43 -12z"/> <path d="M6960 19114 c0 -38 15 -74 30 -74 13 0 13 66 0 91 -17 30 -30 22 -30 -17z"/> <path d="M10292 19028 c-15 -15 -16 -74 -1 -84 16 -10 26 6 34 54 7 44 -6 57 -33 30z"/> <path d="M7017 18963 c-3 -5 -2 -26 3 -47 15 -66 43 -76 43 -15 0 31 -36 79 -46 62z"/> <path d="M7080 18766 c0 -26 6 -38 21 -46 28 -16 34 -6 23 37 -13 52 -44 58 -44 9z"/> <path d="M7140 18650 c0 -20 9 -39 25 -54 14 -13 25 -28 25 -34 0 -6 13 -26 29 -44 15 -18 35 -47 44 -64 9 -17 23 -34 31 -37 8 -3 17 -19 21 -35 3 -16 17 -40 31 -52 13 -13 24 -29 24 -35 0 -7 15 -28 33 -47 29 -31 45 -54 88 -128 8 -16 27 -42 42 -60 15 -17 27 -37 27 -44 0 -7 11 -24 24 -37 13 -13 29 -41 35 -61 15 -47 38 -67 47 -43 7 18 -20 85 -34 85 -5 0 -17 20 -26 44 -9 24 -26 52 -36 61 -11 10 -20 23 -20 30 0 6 -13 24 -30 40 -16 16 -30 34 -30 40 0 6 -13 24 -30 40 -16 16 -30 36 -30 46 0 9 -16 36 -35 59 -19 23 -35 48 -35 56 0 8 -11 20 -25 26 -14 6 -25 20 -25 31 0 18 -28 61 -89 138 -13 17 -29 47 -36 67 -17 48 -45 56 -45 12z"/> <path d="M10216 18618 c-15 -59 5 -103 25 -51 11 29 5 73 -10 73 -5 0 -11 -10 -15 -22z"/> <path d="M10168 18470 c-10 -13 -18 -29 -18 -35 0 -14 -58 -82 -159 -186 -46 -47 -88 -95 -94 -105 -6 -10 -21 -32 -34 -47 -12 -16 -23 -37 -23 -48 0 -38 -200 -209 -243 -209 -8 0 -28 -11 -44 -24 -16 -13 -48 -29 -71 -35 -23 -7 -42 -16 -42 -21 0 -5 -23 -17 -51 -27 -28 -10 -55 -26 -60 -35 -5 -9 -26 -20 -47 -24 -44 -8 -72 -21 -72 -34 0 -15 62 -12 90 4 14 8 45 24 70 36 24 11 51 27 60 34 8 7 31 19 51 25 20 7 45 21 54 31 10 11 28 20 40 20 12 0 33 8 46 19 13 10 44 28 67 40 54 28 128 95 149 135 9 17 24 37 34 44 11 7 19 25 19 39 0 17 14 41 40 67 22 23 78 80 125 127 47 47 85 91 85 97 0 6 12 24 26 41 18 22 24 40 22 63 l-3 33 -17 -25z"/> <path d="M8990 17590 c0 -5 11 -10 24 -10 14 0 28 5 31 10 4 6 -7 10 -24 10 -17 0 -31 -4 -31 -10z"/> <path d="M7677 17563 c-13 -13 -6 -23 44 -63 56 -44 108 -56 89 -20 -6 11 -17 20 -25 20 -8 0 -32 16 -54 35 -41 37 -44 39 -54 28z"/> <path d="M8724 17549 c-10 -17 16 -29 62 -29 37 0 64 13 64 32 0 12 -118 9 -126 -3z"/> <path d="M8520 17500 c-13 -9 -13 -11 0 -20 8 -5 24 -10 36 -10 32 0 85 21 78 31 -7 12 -95 11 -114 -1z"/> <path d="M7830 17453 c0 -16 21 -29 65 -43 22 -7 45 -18 51 -26 13 -16 114 -31 114 -16 0 6 -25 16 -56 23 -35 8 -65 22 -78 36 -23 24 -96 44 -96 26z"/> <path d="M8306 17431 c-10 -10 -38 -24 -64 -31 -26 -6 -55 -20 -65 -31 -12 -12 -31 -19 -57 -19 -41 0 -49 -7 -28 -28 18 -18 53 -15 72 6 9 11 34 24 55 30 21 7 46 21 56 32 10 11 28 20 40 20 30 0 85 20 85 31 0 18 -76 10 -94 -10z"/> </g> </svg>