<svg version="1.0" xmlns="http://www.w3.org/2000/svg"  width="300.000000pt" height="300.000000pt" viewBox="0 0 300.000000 300.000000"  preserveAspectRatio="xMidYMid meet">  <g transform="translate(0.000000,300.000000) scale(0.100000,-0.100000)" fill="#000000" stroke="none"> <path d="M765 2963 c-57 -4 -140 -21 -214 -45 -211 -68 -395 -266 -475 -513 -64 -198 -63 -495 3 -687 118 -344 404 -548 769 -549 266 0 468 92 615 281 74 96 131 201 115 211 -8 5 -21 -7 -37 -34 -71 -123 -230 -283 -206 -208 11 36 -24 61 -102 70 -63 8 -78 14 -120 49 -55 46 -83 50 -152 19 -33 -15 -79 -22 -167 -27 -66 -4 -131 -13 -143 -19 -67 -36 -314 146 -383 282 -27 54 -28 60 -14 76 9 10 16 28 16 42 0 13 6 44 14 69 12 39 12 48 -1 71 -12 20 -14 41 -9 93 4 36 12 66 17 66 6 0 21 11 34 24 23 23 24 27 10 58 -7 19 -11 39 -7 44 4 6 35 29 69 53 80 53 113 89 113 122 0 19 17 40 65 83 36 31 65 64 65 71 0 8 9 19 19 25 18 9 38 7 138 -14 13 -3 41 5 65 19 59 32 129 44 360 59 71 5 78 4 93 -16 21 -30 19 -61 -5 -83 -43 -39 -17 -63 82 -76 47 -6 82 -16 98 -29 36 -29 124 -70 148 -70 25 0 54 26 77 69 17 34 49 55 68 45 6 -4 22 -16 35 -27 24 -22 72 -31 219 -43 63 -5 96 -3 148 11 47 13 69 15 77 7 15 -15 22 -96 10 -118 -9 -16 -12 -15 -42 14 -41 42 -62 44 -41 4 5 -9 23 -44 39 -77 60 -120 77 -147 102 -160 45 -23 59 -48 61 -103 2 -49 4 -54 40 -74 35 -20 59 -53 59 -83 0 -16 75 -58 93 -52 7 2 -7 14 -30 26 -28 14 -43 28 -43 40 0 24 -44 78 -70 86 -16 5 -20 15 -20 47 0 49 -30 101 -72 125 -17 10 -41 40 -55 68 -14 28 -33 61 -43 75 -9 14 -20 33 -23 43 -6 17 -4 16 19 -2 25 -19 51 -20 39 -1 -3 5 -1 11 5 15 16 10 12 108 -6 133 -19 27 -49 28 -133 2 -60 -19 -68 -19 -150 -5 -47 8 -97 15 -112 15 -14 0 -44 14 -67 31 -57 42 -82 35 -128 -37 -39 -60 -45 -62 -116 -35 -37 14 -47 31 -134 241 -42 102 -77 186 -78 187 -1 1 -41 -9 -88 -23 l-87 -25 -123 30 c-117 28 -214 39 -303 34z m242 -59 c52 -14 147 -57 220 -100 17 -10 35 -15 39 -11 8 8 -29 47 -44 47 -5 0 -15 7 -22 14 -11 15 0 20 120 52 8 2 20 0 26 -4 21 -13 102 -208 91 -218 -3 -3 -21 6 -40 20 -19 14 -38 26 -44 26 -5 0 -15 11 -22 24 -14 24 -57 41 -67 25 -7 -13 -35 -11 -60 4 -119 69 -153 82 -269 102 -195 32 -362 -15 -487 -139 -110 -110 -177 -245 -215 -436 -20 -101 -29 -322 -13 -347 9 -14 10 0 6 65 -9 136 22 322 77 462 93 240 289 392 501 389 l71 -1 -60 -13 c-81 -17 -111 -27 -180 -61 -71 -35 -173 -127 -225 -204 -43 -64 -104 -201 -86 -194 6 2 25 34 41 71 79 176 239 317 402 353 59 14 181 14 248 1 61 -12 146 -40 159 -52 11 -10 6 -11 -64 -14 -82 -4 -209 -24 -232 -36 -13 -6 -31 -18 -40 -26 -14 -13 -25 -13 -88 3 -61 15 -74 15 -97 3 -14 -7 -29 -23 -33 -35 -5 -11 -36 -46 -69 -76 -34 -30 -61 -63 -61 -74 0 -34 -34 -74 -104 -122 -88 -61 -94 -70 -72 -113 16 -32 16 -34 -1 -46 -9 -7 -22 -13 -29 -13 -17 0 -23 -21 -30 -98 -4 -50 -2 -72 9 -86 12 -16 12 -27 -3 -80 -9 -34 -22 -73 -29 -87 -11 -23 -9 -34 18 -93 16 -36 37 -73 46 -82 8 -9 13 -20 9 -25 -9 -16 56 -119 117 -183 62 -65 81 -72 27 -10 -42 47 -138 187 -133 193 3 2 25 -14 50 -35 131 -111 158 -130 203 -147 39 -13 56 -15 78 -7 15 6 84 14 154 19 82 5 139 14 160 24 68 35 91 32 144 -14 44 -39 55 -44 120 -51 75 -8 96 -22 96 -63 0 -29 -21 -45 -105 -83 -101 -45 -190 -61 -315 -57 -142 5 -199 18 -305 69 -236 115 -390 354 -413 641 -15 179 11 375 67 520 89 229 256 385 450 422 78 14 227 8 308 -13z m-611 -116 c-119 -145 -175 -257 -218 -441 -18 -76 -22 -123 -22 -267 0 -183 9 -236 70 -390 81 -206 264 -368 489 -431 116 -33 334 -33 419 0 25 10 27 10 17 -3 -6 -7 -22 -16 -34 -19 -12 -3 -51 -13 -87 -22 -97 -25 -283 -23 -385 4 -185 49 -352 168 -448 319 -79 125 -122 258 -138 430 -29 326 78 624 287 796 38 31 70 56 72 56 3 0 -7 -15 -22 -32z m1074 -201 c0 -5 -8 -6 -17 -2 -10 4 -42 11 -72 16 -68 10 -84 24 -53 49 12 10 22 29 22 41 0 20 8 16 60 -36 33 -33 60 -63 60 -68z"/> <path d="M1420 2906 c0 -10 152 -362 160 -370 6 -6 12 -3 15 6 3 8 -27 94 -67 191 -56 137 -76 177 -90 177 -10 0 -18 -2 -18 -4z"/> <path d="M1835 2499 c-38 -24 -171 -69 -232 -77 -34 -5 -49 -12 -51 -25 -3 -14 4 -17 48 -17 65 0 105 -21 119 -61 8 -22 11 -256 11 -771 0 -804 1 -797 -55 -818 -15 -6 -49 -10 -76 -10 -42 0 -49 -3 -49 -20 0 -19 7 -20 256 -20 238 0 255 1 252 18 -2 13 -16 18 -60 22 -46 4 -64 11 -85 33 l-28 27 -3 208 -4 208 93 87 c52 48 97 87 100 87 3 0 23 -26 44 -57 21 -32 115 -168 209 -303 94 -135 184 -264 199 -287 l29 -43 149 0 c139 0 149 1 149 19 0 15 -10 19 -60 24 -80 7 -110 31 -197 154 -38 54 -147 208 -242 341 -95 134 -169 248 -165 252 111 103 340 300 372 321 24 15 62 31 85 34 39 7 61 21 52 35 -2 3 -92 5 -201 5 -178 -1 -197 -3 -200 -18 -2 -13 5 -17 31 -17 21 0 44 -9 62 -24 l28 -24 -75 -74 c-150 -148 -432 -399 -443 -395 -9 3 -13 160 -14 603 -1 329 -6 600 -10 601 -4 1 -21 -7 -38 -18z m25 -605 c0 -407 3 -571 11 -580 6 -8 20 -14 30 -14 27 0 24 -15 -12 -59 l-30 -39 3 -214 c3 -187 5 -217 21 -242 10 -15 16 -31 12 -34 -8 -8 -158 -3 -167 6 -4 4 1 26 12 48 20 40 21 60 21 782 -1 786 0 769 -49 824 -25 28 -23 47 6 49 9 0 35 9 57 19 22 10 50 19 62 19 l22 1 1 -566z m690 -62 c0 -7 -116 -108 -164 -142 -16 -11 -14 -5 8 24 23 31 27 45 23 76 -3 25 -1 41 7 44 19 8 126 6 126 -2z m-380 -347 c-22 -26 -13 -42 263 -429 31 -45 74 -106 94 -136 21 -30 40 -57 43 -60 3 -3 17 -21 29 -40 13 -19 40 -51 60 -70 l36 -35 -60 -3 c-57 -3 -61 -2 -87 29 -16 18 -28 39 -28 46 0 7 -3 13 -7 13 -9 1 -44 50 -225 314 -7 10 -20 28 -29 40 -9 11 -39 55 -67 97 -62 91 -106 139 -130 139 -11 0 2 18 41 55 31 30 62 55 68 55 8 0 8 -5 -1 -15z"/> <path d="M1555 2470 c19 -21 60 -27 70 -10 4 6 -6 10 -24 10 -16 0 -33 5 -36 10 -3 6 -11 10 -17 10 -6 0 -3 -9 7 -20z"/> <path d="M1925 2468 c-6 -17 -11 -1098 -6 -1098 3 0 18 12 33 27 l28 27 0 516 c0 388 -3 519 -12 528 -16 16 -37 15 -43 0z m22 -400 c-1 -68 -3 -15 -3 117 0 132 2 187 3 123 2 -64 2 -172 0 -240z"/> <path d="M1596 2341 c-4 -5 -3 -16 0 -24 7 -19 94 -28 94 -10 0 29 -80 58 -94 34z"/> <path d="M2870 1831 c-70 -24 -86 -26 -93 -15 -10 18 -46 18 -53 0 -3 -8 -28 -17 -59 -21 -69 -8 -90 -23 -286 -197 l-158 -141 18 -26 c93 -135 255 -363 263 -367 21 -13 -34 77 -115 187 -116 160 -112 147 -68 183 20 17 94 83 164 146 137 123 198 163 255 165 24 0 37 6 41 18 7 19 175 82 192 72 21 -14 6 -64 -41 -134 -28 -41 -50 -82 -50 -91 0 -26 -102 -118 -186 -168 l-79 -47 -50 -100 c-47 -94 -50 -105 -50 -177 0 -42 3 -74 6 -72 4 2 10 -8 13 -21 4 -14 11 -23 16 -20 6 3 10 -2 10 -12 1 -22 129 -205 149 -211 7 -2 -15 37 -50 87 -35 50 -67 97 -70 104 -4 6 -16 31 -28 54 -14 26 -22 62 -23 101 -1 53 4 70 48 158 l49 99 77 45 c90 52 184 141 193 181 4 15 19 45 34 66 55 76 70 129 47 166 -14 22 -14 22 -116 -12z m-110 -45 c-8 -8 -30 -18 -47 -21 -63 -10 -109 -43 -252 -173 -197 -180 -180 -167 -197 -151 -13 13 -5 24 68 91 244 222 282 248 360 248 15 0 30 5 33 10 3 6 16 10 28 10 19 0 19 -2 7 -14z"/> <path d="M1600 1573 c-32 -61 -145 -197 -205 -247 -49 -40 -56 -64 -8 -27 58 45 133 124 189 201 104 140 82 60 -24 -90 -26 -36 -73 -91 -106 -122 -73 -70 -53 -80 23 -12 60 54 134 153 184 249 34 65 36 71 20 83 -30 22 -47 13 -73 -35z"/> <path d="M1992 1257 l-72 -72 0 -182 c0 -176 7 -229 33 -245 19 -12 39 -9 31 4 -4 6 -7 92 -7 191 l0 180 68 62 68 61 -25 37 -24 36 -72 -72z m81 19 c3 -8 -18 -36 -50 -67 -30 -30 -61 -67 -68 -84 l-13 -30 -1 45 c-1 43 2 48 56 97 63 57 68 60 76 39z m-126 -378 c-2 -35 -3 -7 -3 62 0 69 1 97 3 63 2 -35 2 -91 0 -125z"/> <path d="M359 1272 c254 -201 653 -251 930 -115 68 33 50 44 -21 13 -97 -42 -143 -51 -268 -55 l-125 -4 100 14 c97 14 268 69 309 100 35 27 12 23 -49 -7 -183 -89 -433 -107 -635 -46 -62 18 -174 70 -217 99 -53 37 -69 37 -24 1z"/> <path d="M1317 1277 c-3 -7 22 -49 54 -93 32 -43 66 -99 75 -124 9 -25 22 -60 30 -78 19 -45 18 -105 -4 -133 -10 -13 -26 -41 -36 -63 -17 -36 -17 -40 -1 -85 10 -25 28 -64 41 -86 12 -22 32 -76 44 -120 29 -111 52 -162 121 -267 41 -63 58 -99 57 -118 -3 -37 14 -55 68 -76 35 -13 49 -14 71 -5 16 6 75 23 132 36 128 31 189 63 244 129 63 75 73 94 85 166 8 42 18 67 29 74 53 29 63 51 63 140 l0 85 50 32 c27 17 47 36 44 41 -7 11 -30 -2 -82 -48 l-43 -37 6 -72 7 -72 -45 -45 c-37 -36 -46 -53 -52 -93 -11 -71 -17 -84 -74 -152 -59 -70 -115 -101 -236 -127 -44 -10 -99 -24 -122 -32 -38 -14 -45 -13 -80 3 -33 16 -39 24 -44 60 -3 27 -23 66 -57 117 -63 90 -95 160 -112 240 -7 33 -16 67 -20 75 -90 180 -91 185 -71 235 6 16 20 41 31 55 33 47 34 75 5 153 -42 113 -61 148 -124 224 -5 6 -16 25 -25 42 -18 36 -22 38 -29 19z"/> <path d="M2916 978 c-14 -72 -101 -167 -138 -153 -17 7 -33 -10 -41 -42 -3 -15 -1 -23 8 -23 8 0 15 10 17 23 2 16 11 23 33 25 38 4 88 52 116 111 l22 46 19 -55 c11 -30 20 -73 20 -95 1 -34 -49 -204 -82 -280 -5 -11 -11 -33 -15 -48 -7 -33 -45 -51 -87 -42 -44 10 -58 31 -58 85 0 74 1 75 76 72 72 -4 108 3 85 17 -16 10 -6 31 15 31 19 0 18 19 -2 27 -10 4 -20 0 -26 -10 -8 -15 -30 -17 -159 -17 l-149 0 16 -25 c13 -19 25 -25 54 -25 46 0 72 9 64 21 -3 5 14 8 38 8 28 -1 34 -3 16 -6 -38 -6 -50 -25 -51 -82 -3 -88 55 -135 139 -112 39 10 39 11 67 103 16 51 35 107 42 123 43 95 46 188 8 285 -15 39 -30 70 -34 70 -4 0 -9 -14 -13 -32z"/> <path d="M2083 663 c-4 -10 -57 -13 -243 -13 -229 0 -238 -1 -243 -20 -3 -11 -1 -22 4 -26 5 -3 129 -5 276 -5 l268 0 0 38 c0 35 -2 38 -29 38 -15 1 -30 -5 -33 -12z"/> </g> </svg>